<!DOCTYPE svg PUBLIC "-//W3C//DTD SVG 1.1//EN" "http://www.w3.org/Graphics/SVG/1.1/DTD/svg11.dtd">
<svg xmlns="http://www.w3.org/2000/svg" xmlns:xlink="http://www.w3.org/1999/xlink" width="614px" height="564px" version="1.1"><defs><linearGradient x1="0%" y1="0%" x2="0%" y2="100%" id="mx-gradient-ffffff-0.9-ffffff-0.1-s-0"><stop offset="0%" style="stop-color:#ffffff;stop-opacity:0.9"/><stop offset="100%" style="stop-color:#ffffff;stop-opacity:0.1"/></linearGradient></defs><g transform="translate(0.5,0.5)"><rect x="420" y="0" width="192" height="282" rx="5.76" ry="5.76" fill="#f5f5f5" stroke="#666666" stroke-width="1.2" pointer-events="none"/><g fill="#000000" font-family="Helvetica" font-weight="bold" text-anchor="middle" font-size="10px"><text x="515.5" y="19.5">First Hook</text></g><rect x="420" y="292" width="192" height="270" rx="7.68" ry="7.68" fill="#f5f5f5" stroke="#666666" stroke-width="1.2" pointer-events="none"/><g fill="#000000" font-family="Helvetica" font-weight="bold" text-anchor="middle" font-size="10px"><text x="515.5" y="311.5">Second Hook</text></g><rect x="204" y="0" width="204" height="562" rx="6.12" ry="6.12" fill="#f5f5f5" stroke="#666666" stroke-width="1.2" pointer-events="none"/><rect x="0" y="0" width="192" height="562" rx="5.76" ry="5.76" fill="#f5f5f5" stroke="#666666" stroke-width="1.2" pointer-events="none"/><rect x="24" y="300" width="144" height="36" rx="5.4" ry="5.4" fill="#000000" stroke="#000000" stroke-width="1.2" transform="translate(2,3)" opacity="0.25"/><rect x="24" y="300" width="144" height="36" rx="5.4" ry="5.4" fill="#dae8fc" stroke="#6c8ebf" stroke-width="1.2" pointer-events="none"/><path d="M 30.58 299 Q 23 299 23 306.58 L 23 314.4 Q 96 325.2 169 314.4 L 169 306.58 Q 169 299 161.42 299 Z" fill="url(#mx-gradient-ffffff-0.9-ffffff-0.1-s-0)" stroke="none" pointer-events="none"/><g fill="#000000" font-family="Helvetica" text-anchor="middle" font-size="10px"><text x="95.5" y="320.5">_do_page_fault</text></g><rect x="0" y="0" width="192" height="38" fill-opacity="0" fill="#ffffff" stroke="none" pointer-events="none"/><g fill="#000000" font-family="Arial,Helvetica" font-weight="bold" text-anchor="middle" font-size="10px"><text x="95.5" y="21.5">do_page_fault</text></g><rect x="228" y="228" width="118" height="36" rx="5.4" ry="5.4" fill="#000000" stroke="#000000" stroke-width="1.2" transform="translate(2,3)" opacity="0.25"/><rect x="228" y="228" width="118" height="36" rx="5.4" ry="5.4" fill="#dae8fc" stroke="#6c8ebf" stroke-width="1.2" pointer-events="none"/><path d="M 234.58 227 Q 227 227 227 234.58 L 227 242.4 Q 287 253.2 347 242.4 L 347 234.58 Q 347 227 339.42 227 Z" fill="url(#mx-gradient-ffffff-0.9-ffffff-0.1-s-0)" stroke="none" pointer-events="none"/><g fill="#000000" font-family="Helvetica" text-anchor="middle" font-size="10px"><text x="286.5" y="248.5">First Hook Function</text></g><rect x="24" y="156" width="144" height="36" rx="5.4" ry="5.4" fill="#000000" stroke="#000000" stroke-width="1.2" transform="translate(2,3)" opacity="0.25"/><rect x="24" y="156" width="144" height="36" rx="5.4" ry="5.4" fill="#dae8fc" stroke="#6c8ebf" stroke-width="1.2" pointer-events="none"/><path d="M 30.58 155 Q 23 155 23 162.58 L 23 170.4 Q 96 181.2 169 170.4 L 169 162.58 Q 169 155 161.42 155 Z" fill="url(#mx-gradient-ffffff-0.9-ffffff-0.1-s-0)" stroke="none" pointer-events="none"/><g fill="#000000" font-family="Helvetica" text-anchor="middle" font-size="10px"><text x="95.5" y="176.5">First Hook Function Pointer</text></g><path d="M 96 192 L 96 207 Q 96 210 99 210 L 284 210 Q 287 210 287 213 L 287 219.46" fill="none" stroke="#000000" stroke-width="1.2" stroke-miterlimit="10" pointer-events="none"/><path d="M 287 226.66 L 283.4 219.46 L 290.6 219.46 Z" fill="#000000" stroke="#000000" stroke-width="1.2" stroke-miterlimit="10" pointer-events="none"/><path d="M 287 264 L 287 279 Q 287 282 284 282 L 99 282 Q 96 282 96 285 L 96 291.46" fill="none" stroke="#000000" stroke-width="1.2" stroke-miterlimit="10" pointer-events="none"/><path d="M 96 298.66 L 92.4 291.46 L 99.6 291.46 Z" fill="#000000" stroke="#000000" stroke-width="1.2" stroke-miterlimit="10" pointer-events="none"/><rect x="204" y="0" width="204" height="38" fill-opacity="0" fill="#ffffff" stroke="none" pointer-events="none"/><g fill="#000000" font-family="Arial,Helvetica" font-weight="bold" text-anchor="middle" font-size="10px"><text x="305.5" y="21.5">Kernel Module</text></g><rect x="24" y="360" width="144" height="36" rx="5.4" ry="5.4" fill="#000000" stroke="#000000" stroke-width="1.2" transform="translate(2,3)" opacity="0.25"/><rect x="24" y="360" width="144" height="36" rx="5.4" ry="5.4" fill="#dae8fc" stroke="#6c8ebf" stroke-width="1.2" pointer-events="none"/><path d="M 30.58 359 Q 23 359 23 366.58 L 23 374.4 Q 96 385.2 169 374.4 L 169 366.58 Q 169 359 161.42 359 Z" fill="url(#mx-gradient-ffffff-0.9-ffffff-0.1-s-0)" stroke="none" pointer-events="none"/><g fill="#000000" font-family="Helvetica" text-anchor="middle" font-size="10px"><text x="95.5" y="374.5">Second Hook</text><text x="95.5" y="386.5">Function Pointer</text></g><rect x="226" y="432" width="160" height="36" rx="5.4" ry="5.4" fill="#000000" stroke="#000000" stroke-width="1.2" transform="translate(2,3)" opacity="0.25"/><rect x="226" y="432" width="160" height="36" rx="5.4" ry="5.4" fill="#dae8fc" stroke="#6c8ebf" stroke-width="1.2" pointer-events="none"/><path d="M 232.58 431 Q 225 431 225 438.58 L 225 446.4 Q 306 457.2 387 446.4 L 387 438.58 Q 387 431 379.42 431 Z" fill="url(#mx-gradient-ffffff-0.9-ffffff-0.1-s-0)" stroke="none" pointer-events="none"/><g fill="#000000" font-family="Helvetica" text-anchor="middle" font-size="10px"><text x="305.5" y="446.5">Second Hook</text><text x="305.5" y="458.5">Function</text></g><rect x="24" y="504" width="144" height="36" rx="5.4" ry="5.4" fill="#000000" stroke="#000000" stroke-width="1.2" transform="translate(2,3)" opacity="0.25"/><rect x="24" y="504" width="144" height="36" rx="5.4" ry="5.4" fill="#dae8fc" stroke="#6c8ebf" stroke-width="1.2" pointer-events="none"/><path d="M 30.58 503 Q 23 503 23 510.58 L 23 518.4 Q 96 529.2 169 518.4 L 169 510.58 Q 169 503 161.42 503 Z" fill="url(#mx-gradient-ffffff-0.9-ffffff-0.1-s-0)" stroke="none" pointer-events="none"/><g fill="#000000" font-family="Helvetica" text-anchor="middle" font-size="10px"><text x="95.5" y="524.5">Exit Page Fault Handler</text></g><path d="M 96 396 L 96 411 Q 96 414 99 414 L 303 414 Q 306 414 306 417 L 306 423.46" fill="none" stroke="#000000" stroke-width="1.2" stroke-miterlimit="10" pointer-events="none"/><path d="M 306 430.66 L 302.4 423.46 L 309.6 423.46 Z" fill="#000000" stroke="#000000" stroke-width="1.2" stroke-miterlimit="10" pointer-events="none"/><path d="M 306 468 L 306 483 Q 306 486 303 486 L 99 486 Q 96 486 96 489 L 96 495.46" fill="none" stroke="#000000" stroke-width="1.2" stroke-miterlimit="10" pointer-events="none"/><path d="M 96 502.66 L 92.4 495.46 L 99.6 495.46 Z" fill="#000000" stroke="#000000" stroke-width="1.2" stroke-miterlimit="10" pointer-events="none"/><path d="M 96 336 L 96 350.46" fill="none" stroke="#000000" stroke-width="1.2" stroke-miterlimit="10" pointer-events="none"/><path d="M 96 357.66 L 92.4 350.46 L 99.6 350.46 Z" fill="#000000" stroke="#000000" stroke-width="1.2" stroke-miterlimit="10" pointer-events="none"/><rect x="24" y="96" width="144" height="39" rx="5.85" ry="5.85" fill="#000000" stroke="#000000" stroke-width="1.2" transform="translate(2,3)" opacity="0.25"/><rect x="24" y="96" width="144" height="39" rx="5.85" ry="5.85" fill="#dae8fc" stroke="#6c8ebf" stroke-width="1.2" pointer-events="none"/><path d="M 31.03 95 Q 23 95 23 103.03 L 23 111.6 Q 96 123.3 169 111.6 L 169 103.03 Q 169 95 160.97 95 Z" fill="url(#mx-gradient-ffffff-0.9-ffffff-0.1-s-0)" stroke="none" pointer-events="none"/><g fill="#000000" font-family="Helvetica" text-anchor="middle" font-size="10px"><text x="95.5" y="118">Enter Page Fault Handler</text></g><path d="M 96 135 L 96 146.46" fill="none" stroke="#000000" stroke-width="1.2" stroke-miterlimit="10" pointer-events="none"/><path d="M 96 153.66 L 92.4 146.46 L 99.6 146.46 Z" fill="#000000" stroke="#000000" stroke-width="1.2" stroke-miterlimit="10" pointer-events="none"/><rect x="468" y="36" width="96" height="24" rx="3.6" ry="3.6" fill="#000000" stroke="#000000" stroke-width="1.2" transform="translate(2,3)" opacity="0.25"/><rect x="468" y="36" width="96" height="24" rx="3.6" ry="3.6" fill="#dae8fc" stroke="#6c8ebf" stroke-width="1.2" pointer-events="none"/><path d="M 472.78 35 Q 467 35 467 40.78 L 467 45.6 Q 516 52.8 565 45.6 L 565 40.78 Q 565 35 559.22 35 Z" fill="url(#mx-gradient-ffffff-0.9-ffffff-0.1-s-0)" stroke="none" pointer-events="none"/><g fill="#000000" font-family="Helvetica" text-anchor="middle" font-size="10px"><text x="515.5" y="50.5">Set Timestamp</text></g><rect x="468" y="132" width="96" height="48" rx="7.2" ry="7.2" fill="#000000" stroke="#000000" stroke-width="1.2" transform="translate(2,3)" opacity="0.25"/><rect x="468" y="132" width="96" height="48" rx="7.2" ry="7.2" fill="#dae8fc" stroke="#6c8ebf" stroke-width="1.2" pointer-events="none"/><path d="M 476.38 131 Q 467 131 467 140.38 L 467 151.2 Q 516 165.6 565 151.2 L 565 140.38 Q 565 131 555.62 131 Z" fill="url(#mx-gradient-ffffff-0.9-ffffff-0.1-s-0)" stroke="none" pointer-events="none"/><g fill="#000000" font-family="Helvetica" text-anchor="middle" font-size="10px"><text x="515.5" y="152.5">Check Virtual</text><text x="515.5" y="164.5">Page Location</text></g><rect x="468" y="84" width="96" height="24" rx="3.6" ry="3.6" fill="#000000" stroke="#000000" stroke-width="1.2" transform="translate(2,3)" opacity="0.25"/><rect x="468" y="84" width="96" height="24" rx="3.6" ry="3.6" fill="#dae8fc" stroke="#6c8ebf" stroke-width="1.2" pointer-events="none"/><path d="M 472.78 83 Q 467 83 467 88.78 L 467 93.6 Q 516 100.8 565 93.6 L 565 88.78 Q 565 83 559.22 83 Z" fill="url(#mx-gradient-ffffff-0.9-ffffff-0.1-s-0)" stroke="none" pointer-events="none"/><g fill="#000000" font-family="Helvetica" text-anchor="middle" font-size="10px"><text x="515.5" y="98.5">Check PID</text></g><rect x="42" y="36" width="102" height="26" fill-opacity="0" fill="#ffffff" stroke="none" pointer-events="none"/><g fill="#000000" font-family="Arial,Helvetica" text-anchor="middle" font-size="10px"><text x="92.5" y="51.5">Timestamp</text></g><path d="M 144 49 L 340 49 Q 343 49 343 52 L 343 216.76" fill="none" stroke="#000000" stroke-width="2" stroke-miterlimit="10" pointer-events="none"/><path d="M 343 224.76 L 339 216.76 L 347 216.76 Z" fill="#000000" stroke="#000000" stroke-width="2" stroke-miterlimit="10" pointer-events="none"/><rect x="36" y="60" width="108" height="21" fill-opacity="0" fill="#ffffff" stroke="none" pointer-events="none"/><g fill="#000000" font-family="Arial,Helvetica" font-size="10px"><text x="40.5" y="73">Should_exec_delay</text></g><path d="M 144 71 L 322 71 Q 325 71 325 74 L 325 216.76" fill="none" stroke="#000000" stroke-width="2" stroke-miterlimit="10" pointer-events="none"/><path d="M 325 224.76 L 321 216.76 L 329 216.76 Z" fill="#000000" stroke="#000000" stroke-width="2" stroke-miterlimit="10" pointer-events="none"/><path d="M 144 71 L 356 71 Q 359 71 359 74 L 359 420.76" fill="none" stroke="#000000" stroke-width="2" stroke-miterlimit="10" pointer-events="none"/><path d="M 359 428.76 L 355 420.76 L 363 420.76 Z" fill="#000000" stroke="#000000" stroke-width="2" stroke-miterlimit="10" pointer-events="none"/><path d="M 144 49 L 380 49 Q 383 49 383 52 L 383 420.76" fill="none" stroke="#000000" stroke-width="2" stroke-miterlimit="10" pointer-events="none"/><path d="M 383 428.76 L 379 420.76 L 387 420.76 Z" fill="#000000" stroke="#000000" stroke-width="2" stroke-miterlimit="10" pointer-events="none"/><path d="M 516 60 L 516 74.46" fill="none" stroke="#000000" stroke-width="1.2" stroke-miterlimit="10" pointer-events="none"/><path d="M 516 81.66 L 512.4 74.46 L 519.6 74.46 Z" fill="#000000" stroke="#000000" stroke-width="1.2" stroke-miterlimit="10" pointer-events="none"/><path d="M 516 108 L 516 122.46" fill="none" stroke="#000000" stroke-width="1.2" stroke-miterlimit="10" pointer-events="none"/><path d="M 516 129.66 L 512.4 122.46 L 519.6 122.46 Z" fill="#000000" stroke="#000000" stroke-width="1.2" stroke-miterlimit="10" pointer-events="none"/><path d="M 347 227 L 462.47 42.24" fill="none" stroke="#000000" stroke-width="1.2" stroke-miterlimit="10" stroke-dasharray="1.2 4.8" pointer-events="none"/><path d="M 466.29 36.14 L 465.53 44.15 L 459.42 40.34 Z" fill="#000000" stroke="#000000" stroke-width="1.2" stroke-miterlimit="10" pointer-events="none"/><rect x="456" y="204" width="120" height="48" rx="7.2" ry="7.2" fill="#000000" stroke="#000000" stroke-width="1.2" transform="translate(2,3)" opacity="0.25"/><rect x="456" y="204" width="120" height="48" rx="7.2" ry="7.2" fill="#dae8fc" stroke="#6c8ebf" stroke-width="1.2" pointer-events="none"/><path d="M 464.38 203 Q 455 203 455 212.38 L 455 223.2 Q 516 237.6 577 223.2 L 577 212.38 Q 577 203 567.62 203 Z" fill="url(#mx-gradient-ffffff-0.9-ffffff-0.1-s-0)" stroke="none" pointer-events="none"/><g fill="#000000" font-family="Helvetica" text-anchor="middle" font-size="10px"><text x="515.5" y="224.5">Set Should_exec_delay</text><text x="515.5" y="236.5">Flag</text></g><path d="M 347 265 L 446.51 253.94" fill="none" stroke="#000000" stroke-width="1.2" stroke-miterlimit="10" stroke-dasharray="1.2 4.8" pointer-events="none"/><path d="M 453.67 253.15 L 446.91 257.52 L 446.11 250.37 Z" fill="#000000" stroke="#000000" stroke-width="1.2" stroke-miterlimit="10" pointer-events="none"/><path d="M 516 180 L 516 194.46" fill="none" stroke="#000000" stroke-width="1.2" stroke-miterlimit="10" pointer-events="none"/><path d="M 516 201.66 L 512.4 194.46 L 519.6 194.46 Z" fill="#000000" stroke="#000000" stroke-width="1.2" stroke-miterlimit="10" pointer-events="none"/><rect x="444" y="342" width="144" height="48" rx="7.2" ry="7.2" fill="#000000" stroke="#000000" stroke-width="1.2" transform="translate(2,3)" opacity="0.25"/><rect x="444" y="342" width="144" height="48" rx="7.2" ry="7.2" fill="#dae8fc" stroke="#6c8ebf" stroke-width="1.2" pointer-events="none"/><path d="M 452.38 341 Q 443 341 443 350.38 L 443 361.2 Q 516 375.6 589 361.2 L 589 350.38 Q 589 341 579.62 341 Z" fill="url(#mx-gradient-ffffff-0.9-ffffff-0.1-s-0)" stroke="none" pointer-events="none"/><g fill="#000000" font-family="Helvetica" text-anchor="middle" font-size="10px"><text x="515.5" y="362.5">Check Should_exec_delay</text><text x="515.5" y="374.5">Flag</text></g><rect x="446" y="510" width="140" height="30" rx="4.5" ry="4.5" fill="#000000" stroke="#000000" stroke-width="1.2" transform="translate(2,3)" opacity="0.25"/><rect x="446" y="510" width="140" height="30" rx="4.5" ry="4.5" fill="#dae8fc" stroke="#6c8ebf" stroke-width="1.2" pointer-events="none"/><path d="M 451.68 509 Q 445 509 445 515.68 L 445 522 Q 516 531 587 522 L 587 515.68 Q 587 509 580.32 509 Z" fill="url(#mx-gradient-ffffff-0.9-ffffff-0.1-s-0)" stroke="none" pointer-events="none"/><g fill="#000000" font-family="Helvetica" text-anchor="middle" font-size="10px"><text x="515.5" y="527.5">Execute Delay</text></g><path d="M 516 390 L 516 415.46" fill="none" stroke="#000000" stroke-width="1.2" stroke-miterlimit="10" pointer-events="none"/><path d="M 516 422.66 L 512.4 415.46 L 519.6 415.46 Z" fill="#000000" stroke="#000000" stroke-width="1.2" stroke-miterlimit="10" pointer-events="none"/><rect x="446" y="424" width="140" height="52" rx="7.8" ry="7.8" fill="#000000" stroke="#000000" stroke-width="1.2" transform="translate(2,3)" opacity="0.25"/><rect x="446" y="424" width="140" height="52" rx="7.8" ry="7.8" fill="#dae8fc" stroke="#6c8ebf" stroke-width="1.2" pointer-events="none"/><path d="M 454.98 423 Q 445 423 445 432.98 L 445 444.8 Q 516 460.4 587 444.8 L 587 432.98 Q 587 423 577.02 423 Z" fill="url(#mx-gradient-ffffff-0.9-ffffff-0.1-s-0)" stroke="none" pointer-events="none"/><g fill="#000000" font-family="Helvetica" text-anchor="middle" font-size="10px"><text x="515.5" y="446.5">Calculate Difference </text><text x="515.5" y="458.5">Delay Using Timestamp</text></g><path d="M 516 476 L 516 501.46" fill="none" stroke="#000000" stroke-width="1.2" stroke-miterlimit="10" pointer-events="none"/><path d="M 516 508.66 L 512.4 501.46 L 519.6 501.46 Z" fill="#000000" stroke="#000000" stroke-width="1.2" stroke-miterlimit="10" pointer-events="none"/><path d="M 387 431 L 438.49 348.25" fill="none" stroke="#000000" stroke-width="1.2" stroke-miterlimit="10" stroke-dasharray="1.2 4.8" pointer-events="none"/><path d="M 442.29 342.14 L 441.54 350.15 L 435.43 346.35 Z" fill="#000000" stroke="#000000" stroke-width="1.2" stroke-miterlimit="10" pointer-events="none"/><path d="M 387 469 L 439.64 534.35" fill="none" stroke="#000000" stroke-width="1.2" stroke-miterlimit="10" stroke-dasharray="1.2 4.8" pointer-events="none"/><path d="M 444.16 539.96 L 436.84 536.61 L 442.45 532.09 Z" fill="#000000" stroke="#000000" stroke-width="1.2" stroke-miterlimit="10" pointer-events="none"/></g></svg>